<svg viewBox="0 0 68.056 47.62352941176471" xmlns="http://www.w3.org/2000/svg" style="max-height: 500px" width="68.056" height="47.62352941176471"><style>.Ds{clip-path:url(#J)}</style><path fill="#323031" d="M84.1 26.4h-7.6l-.8 1.8h-6l9.7-21.6h1.8l9.7 21.6h-6l-.8-1.8zM80.3 17l-1.8 5h3.7l-1.9-5zm34.4-10.4v21.6h-5.5v-8.9l-4.4 5.1H103l-4.4-5.1v8.9h-5.5V6.6h1.8l9 11 9-11h1.8z"/><path fill="#58595b" d="M129.3 6.6c4.2 0 7.8 2.1 9.7 5.7l-4.2 2.9c-1.4-2.3-3.2-3.5-5.5-3.5-3.4 0-5.8 2.4-5.8 6 0 1.8.5 3.2 1.6 4.3s2.5 1.6 4.2 1.6c2.3 0 4.2-1.2 5.5-3.5L139 23c-1.9 3.6-5.5 5.7-9.8 5.7-6.2.1-11.6-4.9-11.5-11 0-6.2 5.3-11.3 11.6-11.1zM141.9 4h5.5v24.1h-5.5V4zm9 8.1h5.5v9c0 1.4 1 2.3 2.3 2.3a2.26 2.26 0 0 0 2.3-2.3v-9h5.5v8.6c0 4.7-3.3 7.9-7.9 7.9-4.5 0-7.9-3.2-7.9-7.9v-8.6zm28.8 16.5c-2.1 0-3.6-.7-4.6-2.1v1.7H170V4h5.5v9.1c1.1-1 2.4-1.5 4.1-1.5 4.4 0 7.7 3.6 7.7 8.5.2 5-3 8.5-7.6 8.5zm-1-11.9c-1.7 0-3.1 1.3-3.1 3.4s1.4 3.4 3.1 3.4c1.8 0 3.2-1.3 3.2-3.4-.1-2.1-1.5-3.4-3.2-3.4z"/><g fill="#323031"><path d="M69.9 32.5H73c1.7 0 3 1.1 3 2.7s-1.3 2.7-3 2.7h-1v2.4h-2v-7.8zm3.1 3.6c.6 0 .9-.4.9-.9 0-.6-.4-.9-.9-.9h-1v1.8h1z"/><path d="M97.8 32.4v8h-2v-3.3L94.2 39h-.7l-1.6-1.9v3.3h-2v-8h.7l3.3 4.1 3.3-4.1h.6z"/><path d="M116 32.4c1.6 0 2.9.8 3.6 2.1l-1.6 1.1c-.5-.9-1.2-1.3-2-1.3-1.2 0-2.1.9-2.1 2.2 0 .7.2 1.2.6 1.6s.9.6 1.5.6c.9 0 1.5-.4 2-1.3l1.6 1.1c-.7 1.3-2 2.1-3.6 2.1-2.3 0-4.3-1.8-4.2-4.1-.1-2.3 1.9-4.2 4.2-4.1zm-.1-2.8h2.5v.4l-1.7 1.8h-1.5l.7-2.2zm18.6 2.9v8h-.7l-4.2-4.1v4h-2v-8h.7l4.2 4.1v-3.9h2zm7.9 7.2h-2.8l-.3.7h-2.2l3.6-8h.7l3.6 8h-2.2l-.4-.7zm-1.4-3.5l-.7 1.8h1.4l-.7-1.8zm11-3.7h3.1c1.7 0 3 1.1 3 2.7s-1.3 2.7-3 2.7h-1v2.4h-2v-7.8zm3 3.6c.6 0 .9-.4.9-.9 0-.6-.4-.9-.9-.9h-1v1.8h1z"/><path d="M172.8 34.4h-2.3v-1.8h6.7v1.8h-2.3v6h-2v-6z"/></g><path fill="#f9e300" d="M52.2 14.3v6.3h9l2.2-6.3zm0 8.2v6.3h6l2.2-6.3zm0-16.4v6.3H65l2.3-6.3zm-37.1 8.2v6.3h-9l-2.2-6.3zm0 8.2v6.3h-6l-2.2-6.3zm0-16.4v6.3H2.2L0 6.1z"/><linearGradient y2="58.38" x2="33.637" y1="-3.431" x1="33.637" gradientUnits="userSpaceOnUse" id="A"><stop stop-color="#313132" offset="0"/><stop stop-color="#232425" offset=".166"/><stop offset="1"/></linearGradient><path fill="url(#A)" d="M51 4.8h0l-.1-.1c-1-.6-2.9-1.5-5.7-2.2-4.6-1.2-10.4-1.3-11.5-1.3h-.2c-1.1 0-7 .1-11.5 1.3-2.7.7-4.6 1.6-5.6 2.2v20.4c0 2.6.1 4.7.2 5.6.4 3.5 5.6 9.5 10.1 12.3 4.3 2.7 6.8 3.9 7 4h0 0c.2-.1 2.8-1.3 7-4 4.5-2.8 9.7-8.8 10.1-12.3.3-3.6.2-25.9.2-25.9z"/><linearGradient y2="55.823" x2="33.636" y1="-1.89" x1="33.636" gradientUnits="userSpaceOnUse" id="B"><stop stop-color="#313132" offset="0"/><stop stop-color="#232425" offset=".166"/><stop offset="1"/></linearGradient><path fill="url(#B)" d="M33.6 45.2c-.6-.3-3-1.4-6.6-3.7-4.2-2.6-9.2-8.1-9.6-11.4-.1-.6-.1-1.9-.1-3.7V5.6a24.21 24.21 0 0 1 5.1-1.9c4.4-1.2 10-1.2 11.1-1.2h.2c1.1 0 6.7.1 11.1 1.2 2.5.7 4.2 1.4 5.2 2V6h0l-.2 24c-.3 3.3-5.4 8.9-9.6 11.4-3.7 2.3-6 3.5-6.6 3.8z"/><path fill="#f1cf13" d="M33.7 2.8c1.1 0 6.6.1 11 1.2 2.3.6 3.9 1.3 4.9 1.8v.4h.1l-.2 23.7c-.3 2.9-4.9 8.4-9.4 11.2-3.4 2.1-5.6 3.2-6.4 3.6-.8-.4-3-1.5-6.4-3.6-4.5-2.8-9.1-8.3-9.4-11.2-.1-.6-.1-1.8-.1-3.7V5.8c1-.5 2.6-1.2 4.8-1.8 4.3-1.2 9.9-1.2 11-1.2h.1m0-.7h-.2c-1.1 0-6.8.1-11.2 1.2-2.6.7-4.4 1.5-5.4 2.1v21c0 1.7.1 3.1.2 3.8.3 3.4 5.4 9 9.8 11.7 4.1 2.6 6.6 3.7 6.8 3.8h0 0c.2-.1 2.7-1.2 6.8-3.8 4.3-2.7 9.4-8.4 9.8-11.7.3-3.4.2-24.6.2-24.6h-.1v-.2c-1-.6-2.8-1.4-5.5-2.1-4.5-1.2-10.1-1.2-11.2-1.2h0z"/><g opacity=".2"><defs><path opacity=".2" d="M17.3 5.4c0 20.9.7 30.9 16.3 35.6C49.2 36.3 49.9 26.4 50 5.5c-4.6-2.4-10.4-3.7-16.5-3.7-6 0-11.6 1.3-16.2 3.6" id="C"/><path d="M82.7 32.4c2.3 0 4.3 1.8 4.2 4.1 0 2.3-2 4.1-4.2 4.1-2.3 0-4.3-1.8-4.2-4.1-.1-2.3 1.9-4.2 4.2-4.1zm0 1.9c-1.3 0-2.1.9-2.1 2.2 0 .7.2 1.2.6 1.6s.9.6 1.5.6c1.2 0 2.1-.9 2.1-2.2 0-1.4-.9-2.2-2.1-2.2z" id="D"/><path d="M160.9 32.5h2v4.7c0 .9.6 1.4 1.4 1.4s1.4-.5 1.4-1.4v-4.7h2V37c0 2.1-1.5 3.5-3.5 3.5s-3.5-1.4-3.5-3.5v-4.5z" id="E"/><path d="M32.3,1.7H17.1H32.3z" id="F"/><path d="M32.2,1.7H17.1H32.2z" id="G"/><path d="M32,1.7H17.1H32z" id="H"/><path d="M31.9,1.7H17.1H31.9z" id="I"/></defs><clipPath id="J"/><g fill="#231f20"><path class="Ds" d="M17.3 1.8H50V41H17.3z"/><path class="Ds" d="M33.2 15.4c-5.1.4-10-.4-14.5-2.1a12.2 12.2 0 0 1-1.7-.7h.2V1.7h33v7.6h.4c-1 .7-2 1.3-3.1 1.9-4.4 2.3-9.2 3.8-14.3 4.2"/></g><path class="Ds" fill="#242121" d="M33.2 15.3c-5.1.4-10-.4-14.5-2.1a12.2 12.2 0 0 1-1.7-.7h.1V1.7h33v7.5h.3c-1 .7-2 1.3-3.1 1.9-4.2 2.3-9 3.8-14.1 4.2"/><path class="Ds" fill="#252222" d="M33.2 15.2c-5.1.4-10-.4-14.5-2.1a12.2 12.2 0 0 1-1.7-.7h.1V1.7h33v7.5h.3c-1 .7-2 1.3-3.1 1.9-4.3 2.3-9 3.7-14.1 4.1"/><path class="Ds" fill="#272424" d="M33.2 15.1c-5.1.4-9.9-.4-14.4-2.1a12.2 12.2 0 0 1-1.7-.7h.1V1.7h33v7.4h.2c-1 .7-2 1.3-3.1 1.9-4.3 2.3-9 3.7-14.1 4.1"/><path class="Ds" fill="#282525" d="M33.2 15c-5 .4-9.9-.4-14.4-2.1a12.2 12.2 0 0 1-1.7-.7h0V1.7h33V9h.2c-1 .7-2 1.3-3.1 1.9-4.2 2.3-9 3.7-14 4.1"/><path class="Ds" fill="#292626" d="M33.2 14.9c-5 .4-9.9-.4-14.4-2.1a12.2 12.2 0 0 1-1.7-.7h0V1.7h33V9h.1c-1 .7-2 1.3-3.1 1.9-4.2 2.2-8.9 3.7-13.9 4"/><path class="Ds" fill="#2a2827" d="M33.2 14.8c-5 .4-9.9-.4-14.4-2a12.2 12.2 0 0 1-1.7-.7c-.3-.1-.5-.2-.8-.4h.8v-10h33v7.2h.1c-1 .7-2 1.3-3.1 1.9-4.2 2.2-8.9 3.7-13.9 4"/><g fill="#2b2928"><path class="Ds" d="M33.2 14.8c-5 .4-9.9-.4-14.3-2a12.2 12.2 0 0 1-1.7-.7c-.3-.1-.5-.2-.8-.4h.8v-10h33v7.1h.1c-1 .7-2 1.3-3.1 1.9a35.49 35.49 0 0 1-14 4.1"/><path class="Ds" d="M33.2 14.7c-5 .4-9.8-.4-14.3-2a12.2 12.2 0 0 1-1.7-.7c-.3-.1-.5-.2-.8-.4h.7V1.7h33v7h0c-1 .7-2 1.3-3.1 1.9-4.1 2.3-8.8 3.7-13.8 4.1"/></g><path class="Ds" fill="#2d2a29" d="M33.2 14.6c-5 .4-9.8-.4-14.3-2-.6-.2-1.1-.4-1.6-.7-.3-.1-.5-.2-.8-.4h.7V1.7h33v6.5h.7c-.2.2-.5.3-.7.5-1 .7-2 1.3-3.1 1.9-4.3 2.2-8.9 3.6-13.9 4"/><path class="Ds" fill="#2e2c2b" d="M33.2 14.5c-5 .4-9.8-.4-14.2-2-.6-.2-1.1-.4-1.6-.7-.3-.1-.5-.2-.8-.4h.7V1.7h33v6.4h.7c-.2.2-.5.3-.7.5-1 .7-2 1.3-3 1.9-4.5 2.2-9.2 3.6-14.1 4"/><path class="Ds" fill="#302e2d" d="M33.2 14.4c-5 .4-9.8-.4-14.2-2-.6-.2-1.1-.4-1.6-.7-.3-.1-.5-.2-.8-.4h.6V1.7h33V8h.6c-.2.2-.5.3-.7.5-1 .7-2 1.3-3 1.9-4.3 2.2-9 3.7-13.9 4"/><path class="Ds" fill="#32302e" d="M33.2 14.3c-5 .4-9.7-.4-14.2-2-.6-.2-1.1-.4-1.6-.7-.3-.1-.5-.2-.8-.4h.6V1.7h33v6.2h.6c-.2.2-.5.3-.7.5-1 .7-2 1.3-3 1.9-4.3 2.2-9 3.7-13.9 4"/><path class="Ds" fill="#33312f" d="M33.1 14.2c-4.9.4-9.7-.4-14.1-2-.6-.2-1.1-.4-1.6-.7-.3-.1-.5-.2-.8-.4h.6V1.7h33v6.2h.5c-.2.2-.5.3-.7.5-1 .7-2 1.3-3 1.9-4.3 2.2-8.9 3.6-13.9 3.9"/><path class="Ds" fill="#343230" d="M33.1 14.2c-4.9.4-9.7-.4-14.1-2-.5-.2-1.1-.4-1.6-.7-.3-.1-.5-.2-.8-.4h.5V1.7h33v6.1h.5c-.2.2-.5.3-.7.5a23.81 23.81 0 0 1-3 1.8c-4.2 2.3-8.8 3.7-13.8 4.1"/><path class="Ds" fill="#353331" d="M33.1 14.1c-4.9.4-9.7-.4-14.1-2-.5-.2-1.1-.4-1.6-.7-.3-.1-.5-.2-.8-.4h.5V1.7h33v6h.4c-.2.2-.5.3-.7.5a23.81 23.81 0 0 1-3 1.8c-4.1 2.3-8.7 3.7-13.7 4.1"/><path class="Ds" fill="#363532" d="M33.1 14c-4.9.4-9.7-.4-14-2-.5-.2-1.1-.4-1.6-.7-.3-.1-.5-.2-.8-.4h.5V1.7h33v6h.4c-.3.1-.6.3-.8.4a23.81 23.81 0 0 1-3 1.8c-4.1 2.3-8.8 3.7-13.7 4.1"/><path class="Ds" fill="#373633" d="M33.1 13.9c-4.9.4-9.6-.4-14-2-.5-.2-1.1-.4-1.6-.7-.3-.1-.5-.2-.8-.4h.4V1.7h33v5.9h.4c-.2.2-.5.3-.7.5a23.81 23.81 0 0 1-3 1.8c-4.2 2.2-8.8 3.6-13.7 4"/><path class="Ds" fill="#383734" d="M33.1 13.8c-4.9.4-9.6-.4-14-2-.5-.2-1.1-.4-1.6-.6-.3-.1-.5-.2-.8-.4h.4V1.7h33v5.8h.3c-.2.2-.4.3-.7.5a23.81 23.81 0 0 1-3 1.8c-4.1 2.3-8.7 3.7-13.6 4"/><path class="Ds" fill="#3a3835" d="M33.1 13.7c-4.9.4-9.6-.4-13.9-2-.5-.2-1.1-.4-1.6-.6-.3-.1-.5-.2-.8-.4h.4v-9h33v5.2h1c-.5.4-.9.7-1.4 1a23.81 23.81 0 0 1-3 1.8c-4.2 2.3-8.8 3.7-13.7 4"/><path class="Ds" fill="#3b3936" d="M33.1 13.6c-4.9.4-9.6-.4-13.9-2-.5-.2-1.1-.4-1.6-.6-.3-.1-.5-.2-.8-.4h.4v-9h33v5.2h.8c-.5.4-.9.7-1.4 1a23.81 23.81 0 0 1-3 1.8c-4.1 2.3-8.6 3.7-13.5 4"/><path class="Ds" fill="#3c3b37" d="M33.1 13.6c-4.9.4-9.6-.4-13.9-2-.5-.2-1.1-.4-1.6-.6-.3-.1-.5-.2-.8-.4h.3V1.7h33v5.1h.9c-.5.4-.9.7-1.4 1a23.81 23.81 0 0 1-3 1.8c-4.1 2.2-8.6 3.6-13.5 4"/><path class="Ds" fill="#3d3c38" d="M33.1 13.5c-4.8.4-9.5-.4-13.9-2-.5-.2-1.1-.4-1.6-.6-.3-.1-.5-.2-.8-.4h.3V1.7h33v5h.9c-.5.4-.9.7-1.4 1-1 .7-1.9 1.3-3 1.8-4.1 2.2-8.7 3.6-13.5 4"/><path class="Ds" fill="#3e3d39" d="M33.1 13.4c-4.8.4-9.5-.4-13.8-2-.5-.2-1.1-.4-1.6-.6-.3-.1-.5-.2-.8-.4h.3V1.7h33v4.9h.8c-.5.3-.9.7-1.4 1-1 .7-1.9 1.3-3 1.8-4.1 2.2-8.7 3.6-13.5 4"/><path class="Ds" fill="#3f3e3a" d="M33.1 13.3c-4.8.4-9.5-.4-13.8-2-1.1-.4-2.1-.9-3.2-1.4h1V1.7h33v4.9h.7c-.5.3-.9.7-1.4 1-1 .7-1.9 1.3-3 1.8-4 2.2-8.5 3.6-13.3 3.9"/><path class="Ds" fill="#403f3a" d="M33.1 13.2c-4.8.4-9.5-.4-13.8-2-1.1-.4-2.1-.9-3.1-1.4h1V1.7h33v4.8h.7c-.5.3-.9.7-1.4 1-1 .6-1.9 1.3-3 1.8-4.1 2.2-8.6 3.6-13.4 3.9"/><path class="Ds" fill="#41403b" d="M33.1 13.1c-4.8.4-9.4-.4-13.7-2-1.1-.4-2.1-.9-3.1-1.4h.9v-8h33v4.7h.6c-.5.3-.9.7-1.4 1-.9.6-1.9 1.2-2.9 1.8-4.1 2.2-8.6 3.6-13.4 3.9"/><path class="Ds" fill="#42413c" d="M33.1 13.1c-4.8.3-9.4-.4-13.7-2-1.1-.4-2.1-.8-3.1-1.4h.9v-8h33v4.7h.6c-.5.3-.9.7-1.4 1-.9.6-1.9 1.2-2.9 1.8-4.1 2.1-8.6 3.5-13.4 3.9"/><path class="Ds" fill="#43423d" d="M33.1 13c-4.8.3-9.4-.4-13.7-1.9-1.1-.4-2.1-.8-3.1-1.3h.9v-8h33v4.6h.6c-.5.3-.9.7-1.4 1-.9.6-1.9 1.2-2.9 1.8-4.2 2-8.7 3.4-13.4 3.8"/><path class="Ds" fill="#44433d" d="M33.1 12.9c-4.8.3-9.4-.4-13.6-1.9-1.1-.4-2.1-.8-3.1-1.3h.8v-8h33v4.5h.5c-.5.3-.9.7-1.4 1-.9.6-1.9 1.2-2.9 1.8-4.1 2.2-8.6 3.5-13.3 3.9"/><path class="Ds" fill="#45443e" d="M33.1 12.8c-4.8.3-9.4-.4-13.6-1.9-1.1-.4-2.1-.8-3.1-1.3h.8V1.7h33v4.5h.5c-.5.3-.9.7-1.4 1-.9.6-1.9 1.2-2.9 1.8a35.78 35.78 0 0 1-13.3 3.8"/><path class="Ds" fill="#46453f" d="M33 12.7c-4.7.3-9.3-.4-13.6-1.9-1.1-.4-2.1-.8-3.1-1.3h.8V1.7h33v4.4h.4c-.5.3-.9.7-1.4 1-.9.6-1.9 1.2-2.9 1.8-3.9 2.1-8.4 3.5-13.2 3.8"/><path class="Ds" fill="#47463f" d="M33 12.6a33.79 33.79 0 0 1-13.5-1.9l-3.1-1.3h.7V1.7h33V6h.4c-.5.3-.9.7-1.4 1l-2.9 1.8c-4 2.1-8.4 3.5-13.2 3.8"/><path class="Ds" fill="#484740" d="M33 12.5a33.79 33.79 0 0 1-13.5-1.9l-3.1-1.3h.7V1.7h33v4.2h.3c-.5.3-.9.7-1.4 1l-2.9 1.8c-3.9 2.1-8.3 3.5-13.1 3.8"/><path class="Ds" fill="#494841" d="M33 12.5a33.79 33.79 0 0 1-13.5-1.9l-3.1-1.3h.7V1.7h33v4.2h.3c-.5.3-.9.7-1.4 1l-2.9 1.8c-3.9 2.1-8.4 3.4-13.1 3.8"/><path class="Ds" fill="#4a4941" d="M33 12.4c-4.7.3-9.3-.4-13.4-1.9-1-.4-2.1-.8-3.1-1.3h.6V1.7h33v4.1h.2c-.5.3-.9.7-1.4 1C48 7.4 47 8 46 8.6c-3.8 2.1-8.3 3.4-13 3.8"/><path class="Ds" fill="#4b4a42" d="M33 12.3c-4.7.3-9.2-.4-13.4-1.9-1-.4-2.1-.8-3.1-1.3h.6V1.7h33v4h.2c-.4.3-.9.7-1.4 1-.9.6-1.9 1.2-2.9 1.8-3.9 2.1-8.3 3.4-13 3.8"/><path class="Ds" fill="#4b4b43" d="M33 12.2c-4.7.3-9.2-.4-13.4-1.9-1-.4-2.1-.8-3.1-1.3h.6V1.7h33v4h.1c-.4.3-.9.7-1.4 1L46 8.4c-3.9 2.1-8.3 3.5-13 3.8"/><path class="Ds" fill="#4c4c43" d="M33 12.1c-4.7.3-9.2-.4-13.4-1.9-1-.4-2.1-.8-3.1-1.3h.5V1.7h33v3.9h.1c-.4.3-.9.7-1.4 1-.8.6-1.7 1.2-2.7 1.7-3.9 2.1-8.3 3.5-13 3.8"/><path class="Ds" fill="#4d4d44" d="M33 12c-4.7.3-9.2-.4-13.3-1.9-1-.4-2.1-.8-3-1.3h.5V1.7h33v3.8h.1c-.4.3-.9.7-1.4 1A27.55 27.55 0 0 1 46 8.2c-4 2.1-8.3 3.5-13 3.8"/><path class="Ds" fill="#4e4d45" d="M33 11.9c-4.7.3-9.1-.4-13.3-1.9-1-.4-2.1-.8-3-1.3h.5v-7h33v3.8h0c-.4.3-.9.7-1.4 1-.9.6-1.9 1.2-2.8 1.7-4 2.1-8.3 3.4-13 3.7"/><path class="Ds" fill="#4f4e45" d="M33 11.9c-4.6.3-9.1-.4-13.3-1.9-1-.4-2-.8-3-1.3h.4v-7h33v3.2h.6c-.2.2-.4.3-.7.5-.4.3-.9.7-1.4 1-.9.6-1.9 1.2-2.8 1.7-3.8 2.1-8.2 3.4-12.8 3.8"/><path class="Ds" fill="#504f46" d="M33 11.8c-4.6.3-9.1-.4-13.2-1.9-1-.4-2-.8-3-1.3h.4V1.7h33v3.1h.6c-.2.2-.4.3-.7.5l-1.3 1c-.9.6-1.9 1.2-2.8 1.7-4 2.1-8.4 3.4-13 3.8"/><path class="Ds" fill="#515046" d="M33 11.7c-4.6.3-9.1-.4-13.2-1.9-1-.4-2-.8-3-1.3h.4V1.7h33v3h.5c-.3.2-.5.3-.7.5l-1.3 1c-.9.6-1.9 1.2-2.8 1.7-4 2.1-8.3 3.5-12.9 3.8"/><path class="Ds" fill="#525147" d="M33 11.6c-4.6.3-9.1-.3-13.2-1.9-1-.4-2-.8-3-1.3h.3V1.7h33v3h.5c-.2.1-.4.3-.6.4l-1.3 1c-.9.6-1.9 1.2-2.8 1.7-4 2.1-8.3 3.5-12.9 3.8"/><path class="Ds" fill="#535248" d="M33 11.5c-4.6.3-9-.3-13.1-1.9-1-.4-2-.8-3-1.3h.3V1.7h33v2.9h.4c-.2.2-.4.3-.7.5l-1.3 1c-.9.6-1.8 1.2-2.8 1.7-3.9 2.1-8.2 3.4-12.8 3.7"/><path class="Ds" fill="#545348" d="M33 11.4c-4.6.3-9-.3-13.1-1.9-1-.4-2-.8-3-1.3h.3V1.7h33v2.8h.4c-.2.2-.4.3-.7.5l-1.3 1c-.9.6-1.8 1.2-2.8 1.7-3.9 2.1-8.2 3.4-12.8 3.7"/><path class="Ds" fill="#555449" d="M33 11.3c-4.6.3-9-.3-13.1-1.9-1-.4-2-.8-3-1.3h.2V1.7h33v2.2h1c-1.7 1.4-3.5 2.7-5.4 3.7-3.9 2.1-8.2 3.4-12.7 3.7"/><path class="Ds" fill="#565549" d="M33 11.3c-4.6.3-9-.3-13-1.9-1-.4-2-.8-3-1.3h.2V1.7h33v2.2h.9c-1.7 1.4-3.5 2.6-5.4 3.7-3.9 2-8.2 3.3-12.7 3.7"/><path class="Ds" fill="#56564a" d="M33 11.2c-4.6.3-9-.3-13-1.9-1-.4-2-.8-3-1.3h.2V1.7h33v2.1h.8c-1.7 1.4-3.5 2.6-5.4 3.7A33.5 33.5 0 0 1 33 11.2"/><path class="Ds" fill="#57564a" d="M32.9 11.1c-4.5.3-8.9-.3-13-1.9-1-.4-2-.8-3-1.3h.1V1.7h33v2h1c-1.7 1.4-3.5 2.6-5.4 3.7-3.8 2.1-8.1 3.4-12.7 3.7"/><path class="Ds" fill="#58574b" d="M32.9 11c-4.5.3-8.9-.3-12.9-1.8-1-.4-2-.8-3-1.3h.1V1.7h33v2h.8c-1.7 1.4-3.5 2.6-5.4 3.7-3.8 2-8 3.3-12.6 3.6"/><path class="Ds" fill="#59584b" d="M32.9 10.9c-4.5.3-8.9-.3-12.9-1.8-1-.4-2-.8-3-1.3h.1V1.7h33v1.9h.7c-1.7 1.4-3.5 2.6-5.4 3.7-3.7 2-7.9 3.3-12.5 3.6"/><path class="Ds" fill="#5a594c" d="M32.9 10.8c-4.5.4-8.8-.3-12.9-1.8-1-.4-2-.8-2.9-1.3h0v-6h33v1.8h.7c-1.7 1.4-3.4 2.6-5.3 3.6a30.23 30.23 0 0 1-12.6 3.7"/><path class="Ds" fill="#5b5a4c" d="M32.9 10.8c-4.5.3-8.8-.3-12.9-1.8-1-.4-2-.8-2.9-1.3h0v-6h33v1.8h.6c-1.7 1.4-3.4 2.6-5.3 3.6-3.8 2-8 3.3-12.5 3.7"/><path class="Ds" fill="#5c5b4d" d="M32.9 10.7c-4.5.3-8.8-.3-12.8-1.8-1-.4-2-.8-2.9-1.3-.2-.1-.5-.2-.7-.4h.7V1.7h33v1.7h.6A31.72 31.72 0 0 1 45.4 7c-3.8 2-8 3.3-12.5 3.7"/><path class="Ds" fill="#5d5c4d" d="M32.9 10.6c-4.5.3-8.8-.3-12.8-1.8-1-.4-2-.8-2.9-1.3-.2-.1-.5-.2-.7-.4h.7V1.7h33v1.6h.5c-1.6 1.4-3.4 2.6-5.3 3.6-3.8 2.1-8 3.4-12.5 3.7"/><path class="Ds" fill="#5e5c4e" d="M32.9 10.5c-4.5.3-8.8-.3-12.8-1.8-1-.4-2-.8-2.9-1.3-.2-.1-.5-.2-.7-.4h.6V1.7h33v1.6h.5c-1.6 1.4-3.4 2.6-5.3 3.6-3.7 2-7.9 3.3-12.4 3.6"/><path class="Ds" fill="#5e5d4e" d="M32.9 10.4c-4.5.3-8.8-.3-12.7-1.8-1-.4-2-.8-2.9-1.3-.3-.1-.5-.2-.7-.3h.6V1.7h33v1.5h.4c-1.6 1.4-3.4 2.6-5.3 3.6-3.8 2-7.9 3.3-12.4 3.6"/><path class="Ds" fill="#5f5e4e" d="M32.9 10.3c-4.4.3-8.7-.3-12.7-1.8-1-.4-2-.8-2.9-1.3-.2-.1-.5-.2-.7-.4h.6V1.7h33v1.4h.4c-1.6 1.4-3.4 2.6-5.3 3.6-3.8 2-8 3.3-12.4 3.6"/><path class="Ds" fill="#605f4f" d="M32.9 10.2c-4.4.3-8.7-.3-12.7-1.8-1-.4-2-.8-2.9-1.3-.2-.1-.5-.2-.7-.4h.5v-5h33V3h.3c-1.6 1.4-3.4 2.6-5.3 3.6-3.6 2-7.8 3.3-12.2 3.6"/><path class="Ds" fill="#61604f" d="M32.9 10.2c-4.4.3-8.7-.3-12.6-1.8l-2.9-1.2c-.2-.1-.5-.2-.7-.4h.5V1.7h33V3h.3c-1.6 1.4-3.4 2.6-5.2 3.6-3.8 2-8 3.2-12.4 3.6"/><path class="Ds" fill="#626150" d="M32.9 10.1c-4.4.3-8.7-.3-12.6-1.8l-2.9-1.2c-.2-.1-.5-.2-.7-.4h.4v-5h33v1.2h.2c-1.6 1.4-3.4 2.6-5.2 3.6-3.7 2-7.8 3.2-12.2 3.6"/><path class="Ds" fill="#636150" d="M32.9 10c-4.4.3-8.7-.3-12.6-1.8L17.4 7c-.2-.1-.5-.2-.7-.4h.4V1.7h33v1.2h.2c-1.6 1.4-3.4 2.5-5.2 3.6-3.7 1.9-7.8 3.2-12.2 3.5"/><path class="Ds" fill="#646250" d="M32.9 9.9c-4.4.3-8.6-.3-12.5-1.8l-2.9-1.2c-.2-.1-.5-.2-.7-.4h.4V1.7h33v1.1h.1c-1.6 1.4-3.4 2.5-5.2 3.5-3.7 2-7.8 3.3-12.2 3.6"/><path class="Ds" fill="#646351" d="M32.9 9.8c-4.4.3-8.6-.3-12.5-1.8l-2.9-1.2c-.2-.1-.5-.2-.7-.4h.3V1.7h33v1h.1C48.6 4 46.9 5.2 45 6.2c-3.6 2-7.8 3.3-12.1 3.6"/><path class="Ds" fill="#656451" d="M32.9 9.7c-4.4.3-8.6-.3-12.5-1.8l-2.9-1.2c-.5-.2-.9-.5-1.4-.7h1V1.7h33v1h.1C48.6 4 46.8 5.2 45 6.2a29.72 29.72 0 0 1-12.1 3.5"/><path class="Ds" fill="#666552" d="M32.9 9.6c-4.4.3-8.6-.3-12.4-1.8-1-.4-1.9-.8-2.8-1.2-.5-.2-.9-.5-1.4-.7h1V1.7h33v.9h0c-1.6 1.3-3.3 2.5-5.2 3.5-3.8 2-7.9 3.2-12.2 3.5"/><path class="Ds" fill="#676552" d="M32.9 9.6c-4.3.3-8.5-.3-12.4-1.8-1-.4-1.9-.8-2.8-1.2-.5-.2-.9-.5-1.4-.7h.9V1.7h33V2h.5c-.2.2-.4.3-.6.5C48.5 3.8 46.8 5 44.9 6c-3.6 2-7.7 3.2-12 3.6"/><path class="Ds" fill="#686652" d="M32.8 9.5c-4.3.3-8.5-.3-12.4-1.8-1-.4-1.9-.8-2.8-1.2-.5-.2-.9-.5-1.4-.7h.9V1.7h33v.2h.5c-.2.2-.4.3-.6.5-1.6 1.3-3.3 2.5-5.1 3.5-3.7 2-7.7 3.3-12.1 3.6"/><path class="Ds" fill="#696753" d="M32.8 9.4c-4.3.3-8.5-.3-12.4-1.8-1-.4-1.9-.8-2.8-1.2-.5-.2-.9-.5-1.4-.7h.8v-4h33v.2h.4c0 .1-.2.3-.4.5-1.6 1.3-3.3 2.5-5.1 3.5-3.7 1.9-7.7 3.2-12.1 3.5"/><path class="Ds" fill="#6a6853" d="M32.8 9.3c-4.3.3-8.4-.3-12.3-1.8-1-.4-1.9-.8-2.8-1.2-.5-.2-.9-.5-1.4-.7h.8V1.7h33l1-.4c-.4.4-.8.7-1.2 1-1.6 1.3-3.3 2.5-5.1 3.5-3.6 1.9-7.7 3.2-12 3.5"/><path class="Ds" fill="#6a6953" d="M32.8 9.2c-4.3.3-8.5-.3-12.3-1.8-1-.4-1.9-.8-2.8-1.2-.5-.2-.9-.5-1.4-.7h.8V1.7h33l.9-.5c-.4.4-.8.7-1.2 1-1.6 1.3-3.3 2.5-5.1 3.5-3.5 2-7.6 3.2-11.9 3.5"/><path class="Ds" fill="#6b6954" d="M32.8 9.1a29.88 29.88 0 0 1-12.3-1.7l-2.8-1.2c-.5-.2-.9-.5-1.4-.7h.7V1.7h33l1-.6c-.4.4-.8.7-1.2 1-1.6 1.3-3.3 2.5-5.1 3.5-3.6 2-7.6 3.2-11.9 3.5"/><path class="Ds" fill="#6c6a54" d="M32.8 9c-4.3.3-8.4-.3-12.2-1.7-1-.4-1.9-.8-2.8-1.2-.5-.2-.9-.5-1.3-.7h.7V1.7h33l.8-.6c-.4.3-.8.7-1.2 1-1.6 1.3-3.3 2.5-5.1 3.5-3.6 1.9-7.6 3.1-11.9 3.4"/><path class="Ds" fill="#6d6b54" d="M32.8 9c-4.3.3-8.4-.3-12.2-1.7-1-.4-1.9-.8-2.8-1.2-.5-.2-.9-.5-1.3-.7h.7V1.7h33l.7-.7c-.4.3-.8.7-1.2 1-1.6 1.3-3.3 2.5-5.1 3.5-3.5 1.9-7.5 3.2-11.8 3.5"/><path class="Ds" fill="#6e6c54" d="M32.8 8.9c-4.3.3-8.4-.3-12.2-1.7L17.8 6c-.5-.2-.9-.5-1.3-.7h.6V1.7h33l.7-.7c-.4.3-.8.7-1.2 1-1.6 1.3-3.3 2.5-5 3.4-3.5 1.9-7.5 3.2-11.8 3.5"/><path class="Ds" fill="#6e6c55" d="M32.8 8.8a28.94 28.94 0 0 1-12.1-1.7l-2.8-1.2c-.5-.2-.9-.5-1.3-.7h.6V1.7h33l.7-.8c-.4.3-.8.7-1.1 1-1.6 1.3-3.2 2.5-5 3.4-3.8 2-7.8 3.2-12 3.5"/><path class="Ds" fill="#6f6d55" d="M32.8 8.7A28.94 28.94 0 0 1 20.7 7l-2.8-1.2c-.5-.2-.9-.5-1.3-.7h.6V1.7h33l.6-.9c-.4.3-.8.7-1.1 1-1.6 1.3-3.2 2.5-5 3.4-3.7 2-7.7 3.2-11.9 3.5"/><path class="Ds" fill="#706e55" d="M32.8 8.6a28.94 28.94 0 0 1-12.1-1.7c-.9-.3-1.9-.7-2.8-1.2-.5-.2-.9-.5-1.3-.7h.5V1.7h33l.6-.9c-.4.3-.8.7-1.1 1-1.6 1.3-3.2 2.4-5 3.4C41 7.1 37 8.3 32.8 8.6"/><path class="Ds" fill="#716f55" d="M32.8 8.5c-4.2.3-8.3-.3-12-1.7-.9-.3-1.9-.7-2.8-1.2-.4-.2-.9-.5-1.3-.7h.5V1.7h33l.5-1c-.4.3-.8.7-1.1 1-1.6 1.3-3.2 2.4-5 3.4C41 7 37 8.2 32.8 8.5"/><g fill="#727056"><path class="Ds" d="M32.8 8.4c-4.2.3-8.3-.3-12-1.7-1-.3-1.9-.7-2.8-1.1-.4-.2-.9-.5-1.3-.7h.4V1.7h32.3v-.1c-1.5 1.3-3.2 2.4-5 3.4-3.5 1.9-7.4 3.1-11.6 3.4"/><path class="Ds" d="M32.8 8.4c-4.2.3-8.2-.3-12-1.7a15.95 15.95 0 0 1-2.7-1.2c-.4-.2-.9-.5-1.3-.7h.4V1.7h32.3v-.2c-1.5 1.3-3.2 2.4-5 3.4-3.6 2-7.5 3.2-11.7 3.5"/></g><path class="Ds" fill="#737156" d="M32.8 8.3c-4.2.3-8.2-.3-12-1.7a15.95 15.95 0 0 1-2.7-1.2c-.4-.2-.9-.5-1.3-.7h.4v-3h32.2v-.2c-1.5 1.3-3.2 2.4-5 3.4C40.9 6.8 37 8 32.8 8.3"/><path class="Ds" fill="#747256" d="M32.8 8.2c-4.2.3-8.2-.3-11.9-1.7a15.95 15.95 0 0 1-2.7-1.2c-.4-.2-.9-.4-1.3-.7h.3v-3h32.2v-.2c-1.5 1.3-3.2 2.4-4.9 3.4-3.6 1.9-7.6 3.1-11.7 3.4"/><path class="Ds" fill="#757257" d="M32.8 8.1c-4.2.3-8.2-.3-11.9-1.7a15.95 15.95 0 0 1-2.7-1.2c-.4-.2-.9-.4-1.3-.7h.3V1.7h32.1v-.4c-1.5 1.3-3.2 2.4-4.9 3.4-3.6 1.9-7.5 3.1-11.6 3.4"/><path class="Ds" fill="#767357" d="M32.8 8c-4.1.3-8.2-.3-11.9-1.7-.9-.3-1.8-.7-2.7-1.1-.4-.2-.9-.4-1.3-.7h.3V1.7h32.1v-.4c-1.5 1.3-3.2 2.4-4.9 3.4-3.6 1.8-7.5 3-11.6 3.3"/><path class="Ds" fill="#767457" d="M32.7 7.9c-4.1.3-8.1-.3-11.8-1.7A15.95 15.95 0 0 1 18.2 5c-.4-.2-.9-.4-1.3-.7h.2V1.7h32v-.5c-1.5 1.3-3.2 2.4-4.9 3.3-3.4 1.9-7.3 3.1-11.5 3.4"/><path class="Ds" fill="#777557" d="M32.7 7.9c-4.1.3-8.1-.4-11.7-1.7-1-.4-1.9-.8-2.7-1.2-.4-.2-.9-.4-1.3-.7h.2V1.7h32v-.6c-1.5 1.3-3.2 2.4-4.9 3.3-3.6 2-7.4 3.2-11.6 3.5"/><path class="Ds" fill="#787557" d="M32.7 7.8c-4.1.3-8.1-.3-11.7-1.7a15.95 15.95 0 0 1-2.7-1.2c-.4-.2-.9-.4-1.3-.7h.2V1.7h31.9v-.6a23.39 23.39 0 0 1-4.9 3.3c-3.5 1.9-7.3 3.1-11.5 3.4"/><path class="Ds" fill="#797658" d="M32.7 7.7c-4.1.3-8-.3-11.7-1.7a15.95 15.95 0 0 1-2.7-1.2c-.4-.2-.9-.4-1.3-.7h.1V1.7H49V1a23.39 23.39 0 0 1-4.9 3.3c-3.4 1.9-7.3 3.1-11.4 3.4"/><path class="Ds" fill="#7a7758" d="M32.7 7.6c-4.1.3-8-.3-11.7-1.7a15.95 15.95 0 0 1-2.7-1.2c-.4-.2-.9-.4-1.3-.7h.1V1.7H49V.9a23.39 23.39 0 0 1-4.9 3.3c-3.4 1.9-7.3 3.1-11.4 3.4"/><path class="Ds" fill="#7a7858" d="M32.7 7.5c-4.1.3-8-.3-11.7-1.7a15.95 15.95 0 0 1-2.7-1.2c-.3-.1-.8-.3-1.2-.6h0V1.7h31.8V.9c-1.5 1.3-3.1 2.4-4.8 3.3-3.5 1.8-7.3 3-11.4 3.3"/><path class="Ds" fill="#7b7858" d="M32.7 7.4c-4.1.3-8-.3-11.6-1.7-.9-.3-1.8-.7-2.7-1.1-.4-.2-.9-.4-1.3-.7h0V1.7h31.7V.8c-1.5 1.3-3.1 2.4-4.8 3.3-3.4 1.9-7.2 3-11.3 3.3"/><path class="Ds" fill="#7c7958" d="M32.7 7.3c-4.1.3-8-.3-11.6-1.7-.9-.3-1.8-.7-2.7-1.1-.4-.2-.9-.4-1.3-.7-.2-.1-.4-.2-.6-.4h.6V1.7h31.7v-1C47.3 2 45.7 3.1 44 4c-3.4 1.9-7.2 3-11.3 3.3"/><path class="Ds" fill="#7d7a58" d="M32.7 7.3a28.18 28.18 0 0 1-11.6-1.6c-.9-.3-1.8-.7-2.6-1.1-.4-.2-.9-.4-1.3-.7-.2-.1-.4-.2-.6-.4h.6V1.7h31.6v-1C47.3 1.9 45.7 3 44 3.9a27.09 27.09 0 0 1-11.3 3.4"/><path class="Ds" fill="#7d7a59" d="M32.7 7.2c-4 .3-7.9-.3-11.5-1.6-.9-.3-1.8-.7-2.6-1.1-.4-.2-.9-.4-1.3-.7-.2-.1-.4-.2-.6-.4h.5V1.7h31.6V.6c-1.5 1.2-3.1 2.3-4.8 3.3-3.5 1.8-7.3 3-11.3 3.3"/><path class="Ds" fill="#7e7b59" d="M32.7 7.1c-4 .3-7.9-.3-11.5-1.6-.9-.3-1.8-.7-2.6-1.1-.4-.2-.9-.4-1.3-.7-.2-.1-.4-.2-.6-.4h.5V1.7h30.4v-.3c-.4.3-.8.6-1.2.8-.8.5-1.6 1-2.5 1.5-3.4 1.9-7.2 3.1-11.2 3.4"/><path class="Ds" fill="#7f7c59" d="M32.7 7c-4 .3-7.9-.3-11.5-1.6-.9-.3-1.8-.7-2.6-1.1-.4-.2-.8-.4-1.3-.7-.2-.1-.4-.2-.6-.4h.4V1.7h30.3v-.3c-.4.3-.8.6-1.2.8-.8.5-1.6 1-2.5 1.5-3.2 1.9-7 3-11 3.3"/><g fill="#807d59"><path class="Ds" d="M32.7 6.9a27.01 27.01 0 0 1-11.4-1.6c-.9-.3-1.8-.7-2.6-1.1l-1.3-.7c-.2-.1-.4-.2-.6-.4h.4V1.7h30.3v-.4c-.4.3-.8.6-1.2.8l-2.5 1.5c-3.3 1.9-7.1 3-11.1 3.3"/><path class="Ds" d="M32.7 6.8a27.01 27.01 0 0 1-11.4-1.6c-1.8-.7-3.5-1.5-5.1-2.5h1v-1h30.3v-.5c-.4.3-.8.6-1.2.8l-2.4 1.5c-3.5 1.9-7.2 3-11.2 3.3"/></g><path class="Ds" fill="#807e59" d="M32.7 6.7c-4 .3-7.8-.3-11.4-1.6-1.8-.7-3.5-1.5-5.1-2.5h.9v-.9h30.2v-.5c-.3.2-.7.5-1.1.8l-2.4 1.5c-3.4 1.8-7.1 3-11.1 3.2"/><path class="Ds" fill="#817f59" d="M32.7 6.7c-4 .3-7.8-.3-11.4-1.6-1.8-.7-3.5-1.5-5.1-2.5h.9v-.9h30.2v-.6c-.4.3-.8.6-1.2.8l-2.4 1.5c-3.3 1.8-7.1 3-11 3.3"/><path class="Ds" fill="#827f59" d="M32.7 6.6c-4 .3-7.8-.3-11.3-1.6-1.8-.7-3.5-1.5-5.1-2.5h.9v-.8h30.1V1c-.4.3-.8.6-1.2.8l-2.4 1.5c-3.4 1.8-7.1 3-11 3.3"/><g fill="#83805a"><path class="Ds" d="M32.7 6.5c-3.9.3-7.8-.3-11.3-1.6a29.18 29.18 0 0 1-5-2.5h.8v-.7h30.1V.9c-.4.3-.8.6-1.2.8l-2.4 1.5c-3.4 1.9-7.1 3-11 3.3"/><path class="Ds" d="M32.7 6.4c-3.9.3-7.7-.3-11.3-1.6a29.18 29.18 0 0 1-5-2.5h.8v-.6h30V.9l-1.1.8-2.4 1.5c-3.4 1.8-7.1 2.9-11 3.2"/></g><path class="Ds" fill="#84815a" d="M32.6 6.3c-3.9.3-7.7-.3-11.2-1.6a29.18 29.18 0 0 1-5-2.5h.7v-.5H46h0l-2.4 1.5c-3.3 1.7-7 2.8-11 3.1"/><path class="Ds" fill="#85815a" d="M32.6 6.2c-3.9.3-7.7-.3-11.2-1.6-1.7-.6-3.4-1.5-5-2.5h.7v-.4h28.8v-.1l-2.4 1.5c-3.3 1.7-6.9 2.8-10.9 3.1"/><path class="Ds" fill="#86825a" d="M32.6 6.1c-3.9.3-7.6-.2-11.1-1.5-1.7-.6-3.4-1.5-5-2.5h.7v-.4H46v-.2L43.6 3c-3.4 1.7-7.1 2.9-11 3.1"/><path class="Ds" fill="#86835a" d="M32.6 6.1c-3.9.2-7.6-.3-11.1-1.6-1.7-.6-3.4-1.5-5-2.5h.6v-.3h28.7v-.3l-2.4 1.5c-3.2 1.8-6.9 2.9-10.8 3.2"/><path class="Ds" fill="#87835a" d="M32.6 6c-3.9.3-7.6-.3-11.1-1.6-1.7-.6-3.4-1.5-5-2.4h.6v-.3h28.7v-.4l-2.4 1.5C40.2 4.6 36.5 5.7 32.6 6"/><path class="Ds" fill="#88845a" d="M32.6 5.9c-3.9.3-7.6-.3-11-1.6-1.7-.6-3.4-1.5-4.9-2.4h.5v-.2h28.6v-.4l-2.4 1.5c-3.3 1.7-6.9 2.8-10.8 3.1"/><path class="Ds" fill="#89855a" d="M32.6 5.8c-3.9.3-7.6-.3-11-1.6-1.7-.6-3.4-1.5-4.9-2.4h.5v-.1h28.6v-.5c-.8.5-1.6 1-2.4 1.4a26.59 26.59 0 0 1-10.8 3.2"/><path class="Ds" fill="#8a855a" d="M32.6 5.7c-3.8.3-7.6-.3-11-1.5-1.7-.6-3.4-1.5-4.9-2.4h.5v-.1h28.5v-.6c-.8.5-1.6 1-2.4 1.4-3.2 1.8-6.8 2.9-10.7 3.2"/><path class="Ds" fill="#8a865a" d="M32.6 5.6c-3.8.3-7.6-.3-11-1.6-1.7-.6-3.4-1.4-4.9-2.4h.4 28.5v-.5c-.8.5-1.5 1-2.4 1.4-3.1 1.8-6.8 2.9-10.6 3.1"/><path class="Ds" fill="#8b875a" d="M32.6 5.6c-3.8.2-7.5-.3-10.9-1.6-1.7-.6-3.3-1.4-4.9-2.4l.4.1h28.5V1c-.8.5-1.5 1-2.3 1.4-3.4 1.8-7 2.9-10.8 3.2"/><path class="Ds" fill="#8c885b" d="M32.6 5.5c-3.8.3-7.5-.3-10.9-1.6-1.7-.6-3.3-1.4-4.9-2.4l.3.2h28.4V.9c-.8.5-1.5 1-2.3 1.4-3.2 1.8-6.8 2.9-10.6 3.2"/><path class="Ds" fill="#8d895b" d="M32.6 5.4c-3.8.3-7.5-.3-10.9-1.6-1.7-.6-3.3-1.4-4.9-2.4l.3.2h28.4V.8c-.8.5-1.5 1-2.3 1.4C40 4 36.4 5.1 32.6 5.4"/><path class="Ds" fill="#8e8a5b" d="M32.6 5.3c-3.8.3-7.5-.3-10.9-1.6a21.55 21.55 0 0 1-4.8-2.4l.3.3h28.3V.8c-.8.5-1.5 1-2.3 1.4-3.3 1.7-6.8 2.8-10.6 3.1"/><g fill="#8f8a5b"><path class="Ds" d="M32.6 5.2c-3.8.3-7.4-.3-10.8-1.5A21.55 21.55 0 0 1 17 1.3l.2.4h28.3v-1a17.61 17.61 0 0 1-2.3 1.4c-3.3 1.7-6.8 2.8-10.6 3.1"/><path class="Ds" d="M32.6 5.1c-3.8.3-7.4-.3-10.8-1.5A21.55 21.55 0 0 1 17 1.2l.2.5h28.2v-1a17.61 17.61 0 0 1-2.3 1.4c-3.2 1.7-6.8 2.8-10.5 3"/></g><path class="Ds" fill="#908b5b" d="M32.6 5c-3.8.3-7.4-.3-10.8-1.5A21.55 21.55 0 0 1 17 1.1l.1.5h27.1v-.3c-.4.2-.8.4-1.2.7-3.1 1.7-6.7 2.8-10.4 3"/><path class="Ds" fill="#918c5b" d="M32.6 5c-3.8.3-7.4-.3-10.7-1.5-1.7-.7-3.3-1.5-4.9-2.4l.1.6h27v-.5c-.4.2-.8.5-1.2.7-3.1 1.7-6.6 2.8-10.3 3.1"/><path class="Ds" fill="#918d5b" d="M32.6 4.9c-3.7.3-7.4-.3-10.7-1.5A21.55 21.55 0 0 1 17.1 1l.1.7h27v-.6c-.4.2-.8.5-1.2.7-3.2 1.7-6.7 2.8-10.4 3.1"/><path class="Ds" fill="#928d5b" d="M32.6 4.8c-3.7.3-7.3-.3-10.7-1.5-1.7-.6-3.3-1.4-4.8-2.3v.8H44v-.7c-.4.2-.8.5-1.2.7a26.34 26.34 0 0 1-10.2 3"/><path class="Ds" fill="#938e5b" d="M32.5 4.7c-3.7.3-7.3-.3-10.6-1.5-1.7-.6-3.2-1.4-4.7-2.3v.8h25.7 0c-3.1 1.7-6.6 2.7-10.4 3"/><path class="Ds" fill="#948f5b" d="M32.5 4.6c-3.7.3-7.3-.3-10.6-1.5-1.7-.6-3.2-1.4-4.7-2.3v.9h25.7v-.1c-3.2 1.7-6.6 2.7-10.4 3"/><path class="Ds" fill="#948f5a" d="M32.5 4.5c-3.7.3-7.2-.3-10.5-1.5-1.6-.6-3.2-1.4-4.7-2.3v1h25.6v-.2c-3.2 1.7-6.7 2.8-10.4 3"/><path class="Ds" fill="#96915b" d="M32.5 4.4c-3.7.3-7.2-.2-10.5-1.5-1.6-.6-3.2-1.4-4.7-2.3v1h25.5v-.2c-3.1 1.7-6.6 2.8-10.3 3"/><path class="Ds" fill="#97925b" d="M32.5 4.4c-3.7.2-7.2-.3-10.5-1.5-.8-.3-1.6-.7-2.4-1l-1.2-.6v.5h24.3v-.4a26.34 26.34 0 0 1-10.2 3"/><path class="Ds" fill="#98925b" d="M32.5 4.3c-3.6.2-7.2-.3-10.5-1.5-.8-.3-1.6-.6-2.4-1l-1.2-.6v.5h24.2v-.4c-3 1.7-6.4 2.7-10.1 3"/><path class="Ds" fill="#99935b" d="M32.5 4.2c-3.7.3-7.2-.3-10.4-1.5-.8-.3-1.6-.6-2.4-1l-1.2-.6v.6h24.2v-.5c-3.1 1.7-6.5 2.7-10.2 3"/><path class="Ds" fill="#99945b" d="M32.5 4.1c-3.6.3-7.2-.3-10.4-1.5-.8-.3-1.6-.6-2.4-1v.1h22.9v-.6c-3 1.7-6.4 2.7-10.1 3"/><path class="Ds" fill="#9a945b" d="M32.5 4c-3.6.3-7.1-.3-10.4-1.5-.8-.3-1.6-.6-2.4-1v.2h22.9V1c-3 1.7-6.5 2.8-10.1 3"/><g fill="#9b955b"><path class="Ds" d="M32.5 3.9c-3.6.3-7.1-.3-10.4-1.5-.8-.3-1.6-.6-2.4-1v.2h22.8V1c-3 1.6-6.4 2.7-10 2.9"/><path class="Ds" d="M32.5 3.8c-3.6.3-7.1-.3-10.3-1.5-.8-.3-1.6-.6-2.4-1v.3h22.7V.9c-3 1.6-6.4 2.7-10 2.9"/></g><path class="Ds" fill="#9c965b" d="M32.5 3.8c-3.6.2-7.1-.3-10.3-1.5-.8-.3-1.6-.6-2.4-1v.4h22.7V.8c-3 1.7-6.4 2.7-10 3"/><path class="Ds" fill="#9d975b" d="M32.5 3.7c-3.6.3-7.1-.3-10.3-1.5-.8-.3-1.6-.6-2.3-1v.5h22.6v-1a24.75 24.75 0 0 1-10 3"/><path class="Ds" fill="#9e985b" d="M32.5 3.6c-3.6.3-7-.3-10.2-1.5-.8-.3-1.6-.6-2.3-1v.5h22.5v-1a24.75 24.75 0 0 1-10 3"/><path class="Ds" fill="#9f995b" d="M32.5 3.5c-3.6.3-7-.3-10.2-1.5-.8-.3-1.6-.6-2.3-1v.6h22.5v-1c-3.1 1.6-6.5 2.6-10 2.9"/><path class="Ds" fill="#a09a5b" d="M32.5 3.4c-3.6.3-7-.3-10.2-1.4-.8-.3-1.6-.6-2.3-1v.7h20 0l-2.4.9c-1.6.4-3.4.7-5.1.8"/><path class="Ds" fill="#a19a5b" d="M32.5 3.3c-3.5.3-7-.3-10.1-1.4-.8-.3-1.6-.6-2.3-1v.8h20v-.2l-2.4.9c-1.7.5-3.5.8-5.2.9"/><path class="Ds" fill="#a19b5b" d="M32.5 3.3c-3.5.3-7-.3-10.1-1.4-.8-.3-1.6-.6-2.3-1v.9h20v-.3l-2.4.9c-1.8.4-3.5.7-5.2.9"/><path class="Ds" fill="#a29c5a" d="M32.5 3.2c-3.5.3-6.9-.3-10.1-1.4-.8-.3-1.6-.6-2.3-1v.9H40v-.3l-2.4.9c-1.7.4-3.4.7-5.1.9"/><path class="Ds" fill="#a39c5a" d="M32.4 3.1c-3.5.3-6.9-.3-10-1.4h0 17.5v-.4l-2.4.9c-1.6.4-3.3.8-5.1.9"/><path class="Ds" fill="#a49d5a" d="M32.4 3c-3.5.3-6.9-.3-10-1.4v.1h17.5v-.5l-2.4.9c-1.6.5-3.3.8-5.1.9"/><path class="Ds" fill="#a59e5a" d="M32.4 2.9c-3.5.3-6.9-.3-10-1.4v.2h17.4v-.6c-.8.3-1.6.6-2.4.8-1.5.6-3.2.9-5 1"/><g fill="#a69f5a"><path class="Ds" d="M32.4 2.8c-3.5.3-6.8-.3-9.9-1.4v.3h17.4v-.6l-2.4.8c-1.6.5-3.3.8-5.1.9"/><path class="Ds" d="M32.4 2.7c-3.4.3-6.8-.2-9.9-1.4v.3h17.3V1l-2.4.8c-1.6.5-3.2.8-5 .9"/></g><path class="Ds" fill="#a7a05a" d="M32.4 2.7c-3.5.3-6.8-.3-9.9-1.4v.4h17.3V.9l-2.4.8c-1.6.5-3.3.8-5 1"/><path class="Ds" fill="#a8a15a" d="M32.4 2.6c-3.4.3-6.8-.3-9.9-1.4v.5h14.9 0c-1.6.4-3.3.7-5 .9"/><path class="Ds" fill="#a9a25a" d="M32.4 2.5c-3.4.3-6.8-.3-9.8-1.4v.6h14.8v-.1c-1.6.4-3.3.8-5 .9"/><path class="Ds" fill="#aaa25a" d="M32.4 2.4A24.82 24.82 0 0 1 22.6 1v.7h14.8v-.2a20.99 20.99 0 0 1-5 .9"/><path class="Ds" fill="#aba35a" d="M32.4 2.3A24.82 24.82 0 0 1 22.6.9v.7h14.7v-.2c-1.5.5-3.2.8-4.9.9"/><path class="Ds" fill="#aba459" d="M32.4 2.2C29 2.5 25.7 2 22.7.8v.8h14.7v-.3c-1.7.5-3.3.8-5 .9"/><path class="Ds" fill="#aca559" d="M32.4 2.1c-3.4.2-6.7-.3-9.7-1.4v.9h14.6v-.4c-1.6.5-3.2.8-4.9.9"/><path class="Ds" fill="#ada559" d="M32.4 2.1c-3.4.2-6.7-.3-9.7-1.4v1h14.6v-.5c-1.6.4-3.2.7-4.9.9"/><path class="Ds" fill="#aea659" d="M32.4 2c-3.4.2-6.6-.3-9.6-1.4v1.1h14.5v-.6c-1.6.4-3.2.8-4.9.9"/><path class="Ds" fill="#afa759" d="M32.4 1.9c-1.7.1-3.4 0-5-.2-.8-.1-1.6-.3-2.4-.5v.4h12.2V1c-1.5.5-3.1.8-4.8.9"/><path class="Ds" fill="#b0a859" d="M32.4 1.8c-1.7.1-3.3.1-4.9-.2h0 9.8V.9a21.1 21.1 0 0 1-4.9.9"/><path class="Ds" fill="#b1a858" d="M32.4 1.7c-1.7.1-3.3.1-4.9-.2v.1h9.7V.8c-1.6.5-3.2.8-4.8.9"/><path class="Ds" fill="#b1a958" d="M32.4 1.6c-1.7.1-3.3.1-4.9-.2v.2h4.9 0z"/><path class="Ds" fill="#b2aa58" d="M32.3 1.5c-1.7.1-3.3.1-4.9-.2v.3h4.9v-.1z"/><path class="Ds" fill="#b3ab58" d="M32.3 1.7h-4.9 4.9z"/><path class="Ds" fill="#b4ab58" d="M32.3 1.7h-9.4 9.4z"/><path class="Ds" fill="#b5ac57" d="M32.3 1.7h-9.4 9.4z"/><path class="Ds" fill="#b6ad57" d="M32.3 1.7H23h9.3z"/><g fill="#b7ae57"/><g fill="#beb454"/><g fill="#c5ba51"/><path class="Ds" fill="#ccc04d" d="M32.2 1.7h-15 15z"/><path class="Ds" fill="#ccc04c" d="M32.2 1.7h-15 15z"/><path class="Ds" fill="#cdc14c" d="M32.2 1.7h-15 15z"/><path class="Ds" fill="#cec24b" d="M32.2 1.7h-15 15z"/><path class="Ds" fill="#cfc34b" d="M32.2 1.7h-15 15z"/><path class="Ds" fill="#d0c34a" d="M32.2 1.7h-15 15z"/><path class="Ds" fill="#d1c449" d="M32.2 1.7h-15 15z"/><path class="Ds" fill="#d2c549" d="M32.2 1.7h-15 15z"/><path class="Ds" fill="#d3c648" d="M32.2 1.7h-15 15z"/><path class="Ds" fill="#d4c647" d="M32.1 1.7h-15 15z"/><path class="Ds" fill="#d4c746" d="M32.1 1.7h-15 15z"/><path class="Ds" fill="#d5c846" d="M32.1 1.7h-15 15z"/><path class="Ds" fill="#d6c845" d="M32.1 1.7h-15 15z"/><path class="Ds" fill="#d7c944" d="M32.1 1.7h-15 15z"/><path class="Ds" fill="#d8ca43" d="M32.1 1.7h-15 15z"/><path class="Ds" fill="#d9cb42" d="M32.1 1.7h-15 15z"/><path class="Ds" fill="#dacb42" d="M32.1 1.7h-15 15z"/><path class="Ds" fill="#dbcc41" d="M32.1 1.7h-15 15z"/><path class="Ds" fill="#dbcd40" d="M32.1 1.7h-15 15z"/><path class="Ds" fill="#dcce3f" d="M32.1 1.7h-15 15z"/><path class="Ds" fill="#ddce3e" d="M32.1 1.7h-15 15z"/><path class="Ds" fill="#decf3d" d="M32.1 1.7h-15 15z"/><path class="Ds" fill="#dfd03c" d="M32.1 1.7h-15 15z"/><path class="Ds" fill="#e0d13b" d="M32.1 1.7h-15 15z"/><path class="Ds" fill="#e1d13a" d="M32.1 1.7h-15 15z"/><path class="Ds" fill="#e2d239" d="M32.1 1.7h-15 15z"/><path class="Ds" fill="#e2d338" d="M32.1 1.7h-15 15z"/><g fill="#fde900"/></g><path fill="#f9e300" d="M28.8 20.5H24l-.5 1.1h-3.7L25.9 8H27l6 13.7h-3.7l-.5-1.2zm-2.4-5.8l-1.2 3.1h2.3l-1.1-3.1zm21.1-6.6v13.6H44V16l-2.8 3.2h-1.1L37.3 16v5.6h-3.5V8.1H35l5.7 6.9 5.7-6.9h1.1z"/><path fill="#fff" d="M23.2 24.7c1.3 0 2.4.6 3 1.7l-1.3.9c-.4-.7-1-1.1-1.7-1.1-1 0-1.8.7-1.8 1.8 0 .5.2 1 .5 1.3s.8.5 1.3.5c.7 0 1.3-.4 1.7-1.1l1.3.9c-.6 1.1-1.7 1.7-3 1.7-1.9 0-3.6-1.5-3.5-3.4 0-1.7 1.6-3.2 3.5-3.2zm5 .2h1.7v5h2.7v1.5h-4.4v-6.5zm6.1 0H36v3.9c0 .7.5 1.2 1.2 1.2s1.2-.5 1.2-1.2v-3.9H40v3.7c0 1.7-1.2 2.9-2.9 2.9s-2.9-1.1-2.9-2.9v-3.7zm11 6.5h-3v-6.5h2.3c1.3 0 2.2.8 2.2 1.9 0 .4-.1.8-.4 1.1.7.3 1.1.8 1.1 1.6 0 1.1-.9 1.9-2.2 1.9zm-1.4-5.1v1.1h.6c.4 0 .7-.2.7-.6 0-.3-.2-.6-.7-.6h-.6zm1.3 2.5h-1.3v1.1h1.3c.4 0 .7-.2.7-.6 0-.3-.3-.5-.7-.5z"/></svg>